<svg xmlns="http://www.w3.org/2000/svg" xmlns:xlink="http://www.w3.org/1999/xlink" viewBox="0 0 64 63.09"><defs><style>.cls-1{fill:none;}.cls-2{clip-path:url(#clip-path);}.cls-3{fill:#8bd8bd;}</style><clipPath id="clip-path" transform="translate(0)"><rect class="cls-1" width="64" height="63.09"/></clipPath></defs><title>phone icon</title><g id="Layer_2" data-name="Layer 2"><g id="Layer_1-2" data-name="Layer 1"><g id="Group_26" data-name="Group 26"><g id="Group_25" data-name="Group 25"><g class="cls-2"><g id="Group_24" data-name="Group 24"><path id="Path_9" data-name="Path 9" class="cls-3" d="M49.15,63.09c-11.43,0-23.49-5.6-33.56-15.65A49.94,49.94,0,0,1,0,16.16,13.13,13.13,0,0,1,4.27,5.62a20,20,0,0,1,7.3-4.43A6.38,6.38,0,0,1,18.79,3.9a42.27,42.27,0,0,1,6.44,15.49h0a6.4,6.4,0,0,1-1.65,5.46l-3.34,3.57h0a.78.78,0,0,0-.07,1,46.88,46.88,0,0,0,6.06,7.42,46.48,46.48,0,0,0,9.86,7.56.74.74,0,0,0,.86-.12l3.1-2.91h0a6.49,6.49,0,0,1,5.48-1.66A42.59,42.59,0,0,1,61,46.12h0a6.38,6.38,0,0,1,2.69,7.29,16.33,16.33,0,0,1-1.5,3.33,12.83,12.83,0,0,1-10,6.21c-1,.09-2,.14-3.08.14ZM13.38,4.28a2.44,2.44,0,0,0-.8.13A16.8,16.8,0,0,0,6.51,8.14,9.73,9.73,0,0,0,3.39,16,46.7,46.7,0,0,0,18,45.08c10.26,10.26,22.63,15.56,34,14.53h0a9.45,9.45,0,0,0,7.36-4.55,13.15,13.15,0,0,0,1.2-2.65A3,3,0,0,0,59.2,49,39.07,39.07,0,0,0,45,43a3,3,0,0,0-2.59.8l-3.1,2.9h0a4.07,4.07,0,0,1-4.83.59,49.82,49.82,0,0,1-10.59-8.13,50.46,50.46,0,0,1-6.49-7.94,4.13,4.13,0,0,1,.42-5.12l3.34-3.57h0a3,3,0,0,0,.8-2.59A38.94,38.94,0,0,0,16,5.72,3.12,3.12,0,0,0,13.38,4.28Z" transform="translate(0)"/><path id="Path_10" data-name="Path 10" class="cls-3" d="M62.31,33.69A1.69,1.69,0,0,1,60.63,32,28.67,28.67,0,0,0,32,3.37,1.69,1.69,0,0,1,32,0,32,32,0,0,1,64,32a1.69,1.69,0,0,1-1.69,1.69Z" transform="translate(0)"/><path id="Path_11" data-name="Path 11" class="cls-3" d="M51.36,33.69A1.69,1.69,0,0,1,49.67,32,17.68,17.68,0,0,0,32,14.33,1.69,1.69,0,1,1,31.87,11H32A21.05,21.05,0,0,1,53,32a1.69,1.69,0,0,1-1.69,1.69Z" transform="translate(0)"/></g></g></g></g></g></g></svg>