<svg xmlns="http://www.w3.org/2000/svg" xmlns:xlink="http://www.w3.org/1999/xlink" viewBox="0 0 64 64"><defs><style>.cls-1,.cls-2{fill:none;}.cls-2{stroke:#8bd8bd;stroke-width:1.68px;}.cls-3{clip-path:url(#clip-path);}.cls-4{fill:#8bd8bd;}</style><clipPath id="clip-path"><rect class="cls-1" x="24.19" y="16.26" width="15.11" height="32.34"/></clipPath></defs><title>facebook icon</title><g id="Layer_2" data-name="Layer 2"><g id="Layer_1-2" data-name="Layer 1"><g id="Ellipse_6" data-name="Ellipse 6"><circle class="cls-1" cx="32" cy="32" r="32"/><circle class="cls-2" cx="32" cy="32" r="31.16"/></g><g id="Group_41" data-name="Group 41"><g class="cls-3"><g id="Group_40" data-name="Group 40"><path id="Path_20" data-name="Path 20" class="cls-4" d="M27.63,48.6l0-15.09c0-1,0-1-1-1-.58,0-1.15,0-1.73,0s-.71-.19-.7-.68V27.44c0-.5.24-.67.71-.67s1.2,0,1.8,0,.94-.18.91-.89c0-1.18,0-2.35,0-3.52a5.54,5.54,0,0,1,5.08-5.95h.13c.24,0,.46-.09.7-.14h5.75c0,1.67,0,3.35,0,5,0,.55-.18.78-.75.77q-1.4,0-2.79,0c-1,0-1.34.27-1.43,1.29s0,1.92,0,2.87c0,.46.28.54.65.54,1.2,0,2.4,0,3.59,0,.59,0,.8.17.72.81q-.25,1.95-.36,3.93c0,.69-.33.91-1,.89-.88,0-1.77,0-2.65,0s-1,0-1,1q0,7.09,0,14.21c0,.33,0,.67,0,1Z"/></g></g></g></g></g></svg>