<svg xmlns="http://www.w3.org/2000/svg" xmlns:xlink="http://www.w3.org/1999/xlink" viewBox="0 0 64 64"><defs><style>.cls-1,.cls-2{fill:none;}.cls-2{stroke:#8bd8bd;stroke-width:1.68px;}.cls-3{clip-path:url(#clip-path);}.cls-4{fill:#8bd8bd;}</style><clipPath id="clip-path"><rect class="cls-1" x="15.79" y="15.13" width="32.34" height="32.34"/></clipPath></defs><title>instagram icon</title><g id="Layer_2" data-name="Layer 2"><g id="Layer_1-2" data-name="Layer 1"><g id="Ellipse_4" data-name="Ellipse 4"><circle class="cls-1" cx="32" cy="32" r="32"/><circle class="cls-2" cx="32" cy="32" r="31.16"/></g><g id="Group_39" data-name="Group 39"><g class="cls-3"><g id="Group_38" data-name="Group 38"><path id="Path_18" data-name="Path 18" class="cls-4" d="M48.12,31.31v9.27a6.78,6.78,0,0,1-5.89,6.82,6,6,0,0,1-.94.07H22.61a6.79,6.79,0,0,1-6.82-6.76V22a6.76,6.76,0,0,1,6.73-6.81h.11q9.33,0,18.66,0A6.75,6.75,0,0,1,48,20.68,7.5,7.5,0,0,1,48.12,22c0,3.1,0,6.2,0,9.3M32,40.73a9.36,9.36,0,1,0-.11,0H32m12.5-20.27a2.24,2.24,0,1,0-2.24,2.25h0a2.23,2.23,0,0,0,2.23-2.22v0"/><path id="Path_19" data-name="Path 19" class="cls-4" d="M31.8,25.13a6.18,6.18,0,1,1-6,6.36,6.18,6.18,0,0,1,6-6.36"/></g></g></g></g></g></svg>