<svg xmlns="http://www.w3.org/2000/svg" xmlns:xlink="http://www.w3.org/1999/xlink" viewBox="0 0 73.17 54.01"><defs><style>.cls-1{fill:none;}.cls-2{clip-path:url(#clip-path);}.cls-3{fill:#8bd8bd;}</style><clipPath id="clip-path"><rect class="cls-1" width="73.17" height="54"/></clipPath></defs><title>mail icon</title><g id="Layer_2" data-name="Layer 2"><g id="Layer_1-2" data-name="Layer 1"><g id="Group_23" data-name="Group 23"><g class="cls-2"><g id="Group_22" data-name="Group 22"><path id="Path_8" data-name="Path 8" class="cls-3" d="M69.48,0H3.7A3.7,3.7,0,0,0,0,3.7V50.31A3.71,3.71,0,0,0,3.7,54H69.48a3.7,3.7,0,0,0,3.69-3.7V3.7A3.7,3.7,0,0,0,69.48,0ZM23.78,27.89,2.64,49V6.76Zm1.87,1.86,3.81,3.81h0a10.09,10.09,0,0,0,14.27,0l3.8-3.8,21.61,21.6H4Zm23.74-1.86L70.52,6.76V49ZM3.7,2.64H69.48a1.07,1.07,0,0,1,.91.52L41.87,31.69a7.47,7.47,0,0,1-10.54,0L2.79,3.16a1.07,1.07,0,0,1,.92-.52Z"/></g></g></g></g></g></svg>