<svg xmlns="http://www.w3.org/2000/svg" xmlns:xlink="http://www.w3.org/1999/xlink" viewBox="0 0 64 64"><defs><style>.cls-1,.cls-2{fill:none;}.cls-2{stroke:#8bd8bd;stroke-width:1.68px;}.cls-3{clip-path:url(#clip-path);}.cls-4{fill:#8bd8bd;}</style><clipPath id="clip-path"><rect class="cls-1" x="16.26" y="19.48" width="32.34" height="26.54"/></clipPath></defs><title>twiter icon</title><g id="Layer_2" data-name="Layer 2"><g id="Layer_1-2" data-name="Layer 1"><g id="Ellipse_7" data-name="Ellipse 7"><circle class="cls-1" cx="32" cy="32" r="32"/><circle class="cls-2" cx="32" cy="32" r="31.16"/></g><g id="Group_43" data-name="Group 43"><g class="cls-3"><g id="Group_42" data-name="Group 42"><path id="Path_21" data-name="Path 21" class="cls-4" d="M16.26,43a13.84,13.84,0,0,0,9.56-2.73c-.63-.14-1.18-.19-1.71-.36A6.63,6.63,0,0,1,19.88,36c-.18-.44-.14-.48.35-.42a5.58,5.58,0,0,0,2.3-.19,6.74,6.74,0,0,1-5.18-6.21c0-.38,0-.42.4-.25a6.48,6.48,0,0,0,2.48.62,7.29,7.29,0,0,1-2-2.24,6.67,6.67,0,0,1-.13-6.29c.2-.41.21-.4.49-.06a18.75,18.75,0,0,0,5.11,4.23,18.92,18.92,0,0,0,5.95,2.17,13,13,0,0,0,2,.24c.31,0,.4-.09.35-.4a6.68,6.68,0,0,1,7.7-7.66,6.51,6.51,0,0,1,3.56,1.76.61.61,0,0,0,.63.16,14.22,14.22,0,0,0,3.44-1.32l.4-.2A6.81,6.81,0,0,1,45,23.61a14.09,14.09,0,0,0,3.61-1,7.09,7.09,0,0,1-1.14,1.53,9.76,9.76,0,0,1-1.76,1.64.82.82,0,0,0-.37.77A19.45,19.45,0,0,1,43.05,36a17.86,17.86,0,0,1-10.41,9A18.91,18.91,0,0,1,18.3,44.2a9.71,9.71,0,0,1-2-1.19"/></g></g></g></g></g></svg>