<svg xmlns="http://www.w3.org/2000/svg" xmlns:xlink="http://www.w3.org/1999/xlink" viewBox="0 0 740.76 1009.26"><defs>
  <style>.cls-1{fill:url(#linear-gradient);}.cls-2{fill:url(#linear-gradient-2);}.cls-3{fill:url(#linear-gradient-3);}.cls-4{fill:url(#linear-gradient-4);}.cls-5{fill:url(#linear-gradient-5);}.cls-6{fill:#fff;}.cls-7{fill:url(#linear-gradient-6);}.cls-8{fill:url(#linear-gradient-7);}</style>
<linearGradient id="linear-gradient" x1="2804.05" y1="1305.51" x2="2804.05" y2="1302.62" gradientTransform="matrix(255, 0, 0, -150, -714661, 196402)" gradientUnits="userSpaceOnUse">
  <stop offset="0" stop-color="#8bd8bd" stop-opacity="0"/>
<stop offset="1" stop-color="#8bd8bd" stop-opacity="0.44"/></linearGradient>
<linearGradient id="linear-gradient-2" x1="373.14" y1="922" x2="373.14" y2="699.51" gradientUnits="userSpaceOnUse">
  <stop offset="0" stop-color="#8bd8bd"/>
<stop offset="1" stop-color="#9dd8bd" stop-opacity="0.6"/></linearGradient>
<linearGradient id="linear-gradient-3" x1="373.07" y1="869.14" x2="373.07" y2="533.03" gradientUnits="userSpaceOnUse">
  <stop offset="0" stop-color="#e6e6e6"/>
<stop offset="0.53" stop-color="#f6f6f6"/>
<stop offset="1" stop-color="#fff"/></linearGradient>
<linearGradient id="linear-gradient-4" x1="373.85" y1="712.17" x2="373.85" y2="549.4" gradientUnits="userSpaceOnUse">
  <stop offset="0" stop-color="#8bd8bd"/>
<stop offset="1" stop-color="#b3ffe3"/></linearGradient>
<linearGradient id="linear-gradient-5" x1="373.67" y1="673.49" x2="373.67" y2="427.61" xlink:href="#linear-gradient-4"/>
<linearGradient id="linear-gradient-6" x1="372.83" y1="388.97" x2="372.83" y2="166.48" gradientUnits="userSpaceOnUse">
  <stop offset="0" stop-color="#e6e6e6"/>
<stop offset="0.23" stop-color="#f2f2f2"/>
<stop offset="0.57" stop-color="#fcfcfc"/><stop offset="1" stop-color="#fff"/></linearGradient>
<linearGradient id="linear-gradient-7" x1="372.76" y1="336.11" x2="372.76" y2="0" xlink:href="#linear-gradient-4"/></defs>
<title>Asset 14</title>
<g id="Layer_2" data-name="Layer 2">
<g id="Layer_1-2" data-name="Layer 1">
<ellipse id="Ellipse_8" data-name="Ellipse 8" class="cls-1" cx="371.09" cy="792.12" rx="369.14" ry="217.14"/>
  <circle fill="white" id="Ellipse_10-2" data-name="Ellipse 10-2" class="cls-11" r="14">
  <animateMotion dur="18s" repeatCount="indefinite" path="M371.26 834.11c-98.56 0-191.24-22.44-261-63.18C40.3 730 1.76 675.59 1.76 617.61S40.3 505.17 110.29 464.29c69.73-40.74 162.41-63.18 261-63.18s191.24 22.44 261 63.18c70 40.88 108.53 95.34 108.53 153.32S702.22 730 632.23 770.93c-69.73 40.74-162.41 63.18-260.97 63.18Zm0-430c-202.09 0-366.5 95.77-366.5 213.5s164.41 213.5 366.5 213.5 366.5-95.78 366.5-213.5-164.41-213.5-366.5-213.5Z" >
    </animateMotion>
  </circle>
<circle fill="white" class="cls-11"  r="14">
  <animateMotion dur="18s" begin="-9s" repeatCount="indefinite" path="M371.26 834.11c-98.56 0-191.24-22.44-261-63.18C40.3 730 1.76 675.59 1.76 617.61S40.3 505.17 110.29 464.29c69.73-40.74 162.41-63.18 261-63.18s191.24 22.44 261 63.18c70 40.88 108.53 95.34 108.53 153.32S702.22 730 632.23 770.93c-69.73 40.74-162.41 63.18-260.97 63.18Zm0-430c-202.09 0-366.5 95.77-366.5 213.5s164.41 213.5 366.5 213.5 366.5-95.78 366.5-213.5-164.41-213.5-366.5-213.5Z" >
    </animateMotion>
  </circle>
  <circle fill="white" id="Ellipse_10-2" data-name="Ellipse 10-2" class="cls-11" r="14">
  <animateMotion dur="18s" repeatCount="indefinite" path="M369.5,659c-98.56,0-191.24-22.44-261-63.18C38.54,554.93,0,500.48,0,442.5S38.54,330.07,108.53,289.18C178.26,248.44,270.94,226,369.5,226s191.24,22.44,261,63.18C700.46,330.07,739,384.52,739,442.5S700.46,554.93,630.47,595.82C560.74,636.56,468.06,659,369.5,659Zm0-430C167.41,229,3,324.78,3,442.5S167.41,656,369.5,656,736,560.22,736,442.5,571.59,229,369.5,229Z" >
    </animateMotion>
  </circle>
<circle fill="white" class="cls-11" r="14">
  <animateMotion dur="18s" begin="-9s" repeatCount="indefinite" path="M369.5,659c-98.56,0-191.24-22.44-261-63.18C38.54,554.93,0,500.48,0,442.5S38.54,330.07,108.53,289.18C178.26,248.44,270.94,226,369.5,226s191.24,22.44,261,63.18C700.46,330.07,739,384.52,739,442.5S700.46,554.93,630.47,595.82C560.74,636.56,468.06,659,369.5,659Zm0-430C167.41,229,3,324.78,3,442.5S167.41,656,369.5,656,736,560.22,736,442.5,571.59,229,369.5,229Z" >
    </animateMotion>
  </circle>
<path class="cls-2" d="M108.3,705.82l.87,61.34h.17C114.37,853.19,230,922,373.07,922s259.7-68.81,264.73-154.84H638l-.15-67.65Z"/>
<ellipse id="Ellipse_8-2" data-name="Ellipse 8" class="cls-3" cx="373.07" cy="701.08" rx="264.9" ry="168.05"/>
<path class="cls-4" d="M180.24,554l.64,44.88H181c3.68,62.94,88,113.28,192.66,113.28s190-50.34,193.67-113.28h.13l-.12-49.49Z"/>
<ellipse id="Ellipse_8-3" data-name="Ellipse 8" class="cls-5" cx="373.67" cy="550.55" rx="193.79" ry="122.94"/>
<path class="cls-6" d="M369.5,659c-98.56,0-191.24-22.44-261-63.18C38.54,554.93,0,500.48,0,442.5S38.54,330.07,108.53,289.18C178.26,248.44,270.94,226,369.5,226s191.24,22.44,261,63.18C700.46,330.07,739,384.52,739,442.5S700.46,554.93,630.47,595.82C560.74,636.56,468.06,659,369.5,659Zm0-430C167.41,229,3,324.78,3,442.5S167.41,656,369.5,656,736,560.22,736,442.5,571.59,229,369.5,229Z"/>
<path class="cls-6" d="M371.26,834.11c-98.56,0-191.24-22.44-261-63.18C40.3,730,1.76,675.59,1.76,617.61S40.3,505.17,110.29,464.29c69.73-40.74,162.41-63.18,261-63.18s191.24,22.44,261,63.18c70,40.88,108.53,95.34,108.53,153.32S702.22,730,632.23,770.93C562.5,811.67,469.82,834.11,371.26,834.11Zm0-430c-202.09,0-366.5,95.77-366.5,213.5s164.41,213.5,366.5,213.5,366.5-95.78,366.5-213.5S573.35,404.11,371.26,404.11Z"/>
<path class="cls-7" d="M108,168l.86,66.13H109c5,86,120.63,154.84,263.73,154.84s259.7-68.81,264.73-154.84h.17l-.15-67.65Z"/>
<ellipse id="Ellipse_8-4" data-name="Ellipse 8" class="cls-8" cx="372.76" cy="168.05" rx="264.9" ry="168.05"/></g></g></svg>