<svg xmlns="http://www.w3.org/2000/svg" xmlns:xlink="http://www.w3.org/1999/xlink" viewBox="0 0 64 64"><defs><style>.cls-1,.cls-2{fill:none;}.cls-2{stroke:#8bd8bd;stroke-width:1.68px;}.cls-3{clip-path:url(#clip-path);}.cls-4{fill:#8bd8bd;}</style><clipPath id="clip-path"><rect class="cls-1" x="16.26" y="13.59" width="32.29" height="32.34"/></clipPath></defs><title>linkedin icon</title><g id="Layer_2" data-name="Layer 2"><g id="Layer_1-2" data-name="Layer 1"><g id="Ellipse_5" data-name="Ellipse 5"><circle class="cls-1" cx="32" cy="32" r="32"/><circle class="cls-2" cx="32" cy="32" r="31.16"/></g><g id="Group_37" data-name="Group 37"><g class="cls-3"><g id="Group_36" data-name="Group 36"><path id="Path_15" data-name="Path 15" class="cls-4" d="M27.13,35.17V45.58c0,.35,0,.35.36.35h5.88a.17.17,0,0,0,.19-.14v-11a5.51,5.51,0,0,1,.13-1.28,4,4,0,0,1,2.92-3.26,4.62,4.62,0,0,1,1-.18A4.06,4.06,0,0,1,41,31.21a4,4,0,0,1,1,2.85c0,3.83,0,7.67,0,11.51,0,.36,0,.36.36.36h5.73c.38,0,.38,0,.38-.39,0-4.28,0-8.57,0-12.86a10.05,10.05,0,0,0-1-4.31,7.34,7.34,0,0,0-4.71-4,8.18,8.18,0,0,0-3.44-.3,8.62,8.62,0,0,0-6,3.24c0,.06-.08.18-.18.14s0-.14,0-.21v-2.5c0-.31,0-.33-.34-.33H27.51c-.37,0-.37,0-.37.37V35.17"/><path id="Path_16" data-name="Path 16" class="cls-4" d="M23.34,35.17V24.79c0-.34,0-.36-.35-.36H17.11c-.34,0-.35,0-.35.35V45.56c0,.37,0,.37.38.37h5.79c.41,0,.41,0,.41-.42V35.17"/><path id="Path_17" data-name="Path 17" class="cls-4" d="M23.84,17.38a3.77,3.77,0,1,0,0,.05v-.05"/></g></g></g></g></g></svg>