<svg xmlns="http://www.w3.org/2000/svg" xmlns:xlink="http://www.w3.org/1999/xlink" viewBox="0 0 774.64 157.57"><defs><style>.cls-1{fill:none;}.cls-2{fill:url(#linear-gradient);}.cls-3{fill:url(#linear-gradient-2);}.cls-4{fill:url(#linear-gradient-3);}.cls-5{fill:url(#linear-gradient-4);}.cls-6{clip-path:url(#clip-path);}.cls-7{fill:url(#radial-gradient);}.cls-8{fill:url(#linear-gradient-5);}.cls-9{isolation:isolate;}.cls-10{fill:white;}</style><linearGradient id="linear-gradient" x1="37.18" y1="113.24" x2="77.59" y2="113.24" gradientUnits="userSpaceOnUse"><stop offset="0" stop-color="#22a8c9"/><stop offset="0.1" stop-color="#198db6"/><stop offset="0.22" stop-color="#1073a3"/><stop offset="0.35" stop-color="#095f95"/><stop offset="0.51" stop-color="#04518b"/><stop offset="0.69" stop-color="#014985"/><stop offset="1" stop-color="#004683"/></linearGradient><linearGradient id="linear-gradient-2" x1="59.6" y1="24.67" x2="118.48" y2="58.67" gradientUnits="userSpaceOnUse"><stop offset="0" stop-color="#22a8c9"/><stop offset="1" stop-color="#003f83"/></linearGradient><linearGradient id="linear-gradient-3" x1="8.14" y1="107.37" x2="41" y2="113.17" gradientUnits="userSpaceOnUse"><stop offset="0" stop-color="#004683"/><stop offset="0.29" stop-color="#0d6d9f"/><stop offset="0.58" stop-color="#198db6"/><stop offset="0.83" stop-color="#20a1c4"/><stop offset="1" stop-color="#22a8c9"/></linearGradient><linearGradient id="linear-gradient-4" x1="72.08" y1="116.01" x2="88.34" y2="71.35" gradientUnits="userSpaceOnUse"><stop offset="0" stop-color="#64c9b9"/><stop offset="0.44" stop-color="#9bd9c9"/><stop offset="0.81" stop-color="#c4e5d5"/><stop offset="1" stop-color="#d3eada"/></linearGradient><clipPath id="clip-path"><circle class="cls-1" cx="80.36" cy="93.27" r="23.76"/></clipPath><radialGradient id="radial-gradient" cx="82.52" cy="77.14" r="21.27" gradientUnits="userSpaceOnUse"><stop offset="0" stop-color="#fdfacc"/><stop offset="0.17" stop-color="#fdfacc" stop-opacity="0.78"/><stop offset="0.39" stop-color="#fdfacc" stop-opacity="0.51"/><stop offset="0.6" stop-color="#fdfacc" stop-opacity="0.29"/><stop offset="0.78" stop-color="#fdfacc" stop-opacity="0.13"/><stop offset="0.91" stop-color="#fdfacc" stop-opacity="0.04"/><stop offset="1" stop-color="#fdfacc" stop-opacity="0"/></radialGradient><linearGradient id="linear-gradient-5" x1="5.36" y1="75.4" x2="146.74" y2="157.03" gradientUnits="userSpaceOnUse"><stop offset="0" stop-color="#004683"/><stop offset="0.08" stop-color="#06578f"/><stop offset="0.37" stop-color="#1a91b9"/><stop offset="0.52" stop-color="#22a8c9"/><stop offset="0.6" stop-color="#20a2c4"/><stop offset="0.71" stop-color="#198fb7"/><stop offset="0.84" stop-color="#0f72a2"/><stop offset="0.99" stop-color="#014985"/><stop offset="1" stop-color="#004683"/></linearGradient></defs><title>logo_2</title><g id="Layer_2" data-name="Layer 2"><g id="Layer_1-2" data-name="Layer 1"><path class="cls-2" d="M37.18,126l2.12,1.28C50.69,121.17,64,111.7,77.59,99.72l-1.07-.5C62.19,111.87,48.13,121.29,37.18,126Z"/><path class="cls-3" d="M55.82,62.78c28.61-27.4,58.12-43,65.92-34.86,7.64,8-8.37,35.76-35.89,62.63l1.16.51c1.61-1.55,3.22-3.12,4.82-4.73,35.76-35.76,56.31-73.2,45.88-83.62S89.85,12.83,54.09,48.59A293.71,293.71,0,0,0,30.42,75.21c3.7.32,7.66.87,11.81,1.64C46.38,72.19,50.93,67.46,55.82,62.78Z"/><path class="cls-4" d="M36.25,126.37c-8.51,3.49-15,4-18.1.77-2.55-2.67-2.47-7.54-.2-13.84.14-.39.29-.79.45-1.19,2.89-7.39,8.58-16.58,16.41-26.45a73.43,73.43,0,0,0-11.39-1,150,150,0,0,0-12,19.93c-.3.61-.59,1.22-.87,1.81-5.58,12-6.76,21.37-2.32,25.81,5,5,16.08,2.9,30.23-4.5C37.7,127.27,37,126.82,36.25,126.37Z"/><path class="cls-1" d="M74.89,98.46C60.4,91.85,46.35,87.51,34.81,85.66,27,95.53,21.29,104.72,18.4,112.11A124.09,124.09,0,0,0,37.18,126c11-4.69,25-14.11,39.34-26.76Z"/><path class="cls-1" d="M18.15,127.14c3.09,3.23,9.59,2.72,18.1-.77A157.15,157.15,0,0,1,18,113.3C15.68,119.6,15.6,124.47,18.15,127.14Z"/><path class="cls-1" d="M121.74,27.92c-7.8-8.15-37.31,7.46-65.92,34.86-4.89,4.68-9.44,9.41-13.59,14.07a210.15,210.15,0,0,1,43.62,13.7C113.37,63.68,129.38,35.89,121.74,27.92Z"/><path class="cls-1" d="M57.44,136.71c32.45,14.81,62.66,18.25,67.48,7.69,4.68-10.27-16.35-30-47.33-44.68-13.6,12-26.9,21.45-38.29,27.54A188.36,188.36,0,0,0,57.44,136.71Z"/><path class="cls-1" d="M7.41,90.78c-1.66,3.63-.1,8.45,4,13.81a150,150,0,0,1,12-19.93C15.1,84.65,9.3,86.64,7.41,90.78Z"/><circle class="cls-5" cx="80.36" cy="93.27" r="23.76"/><g class="cls-6"><circle class="cls-7" cx="82.52" cy="77.14" r="21.27"/></g><path class="cls-8" d="M87,91.06h0l-1.16-.51a210.15,210.15,0,0,0-43.62-13.7c-4.15-.77-8.11-1.32-11.81-1.64C14.91,73.86,3.82,76.48.81,83.4c-2.61,6,1.22,14.16,9.72,23,.28-.59.57-1.2.87-1.81-4.09-5.36-5.65-10.18-4-13.81,1.89-4.14,7.69-6.13,16-6.12a73.43,73.43,0,0,1,11.39,1c11.54,1.85,25.59,6.19,40.08,12.8l1.63.76,1.07.5c31,14.69,52,34.41,47.33,44.68-4.82,10.56-35,7.12-67.48-7.69a188.36,188.36,0,0,1-18.14-9.45L37.18,126A124.09,124.09,0,0,1,18.4,112.11c-.16.4-.31.8-.45,1.19a157.15,157.15,0,0,0,18.3,13.07c.72.45,1.45.9,2.19,1.34a230.58,230.58,0,0,0,26.64,13.66c41.55,18.13,80.15,21.56,86.21,7.66S128.58,109.18,87,91.06Z"/><g class="cls-9"><path class="cls-10" d="M155.29,117.5V62.14h33.12v5.44h-27v21.6h22.8v5.44h-22.8V117.5Z"/><path class="cls-10" d="M221.61,77.5h6v40h-6v-2.8a22.92,22.92,0,0,1-11.84,3.6q-8.16,0-10.84-4.24t-2.68-15.68V77.5h6V98.3q0,8.72,1.52,11.68t6.88,3a19.71,19.71,0,0,0,5.36-.76,24.89,24.89,0,0,0,4.16-1.48l1.44-.72Z"/><path class="cls-10" d="M261.61,82.7H248.89v19.12q0,6.89,1,9t4.76,2.16l7.12-.48.4,5a54.44,54.44,0,0,1-8.16.88q-6.24,0-8.64-3t-2.4-11.6v-21h-5.68V77.5H243V65.26h5.92V77.5h12.72Z"/><path class="cls-10" d="M295.69,77.5h6v40h-6v-2.8a22.92,22.92,0,0,1-11.84,3.6q-8.16,0-10.84-4.24t-2.68-15.68V77.5h6V98.3q0,8.72,1.52,11.68t6.88,3a19.76,19.76,0,0,0,5.36-.76,24.89,24.89,0,0,0,4.16-1.48l1.44-.72Z"/><path class="cls-10" d="M315,117.5v-40h5.92v5.44a38.91,38.91,0,0,1,14.64-6.32V82.7a42.91,42.91,0,0,0-7,2A47.26,47.26,0,0,0,323,87.1l-2,1V117.5Z"/><path class="cls-10" d="M370.81,112.54l2.32-.24.16,4.72a115.38,115.38,0,0,1-15.6,1.28q-8.64,0-12.24-5t-3.6-15.56q0-21,16.72-21,8.07,0,12.08,4.52t4,14.2l-.32,4.56h-26.4q0,6.64,2.4,9.84c1.6,2.13,4.38,3.2,8.36,3.2S366.7,112.86,370.81,112.54Zm-2.16-17.36q0-7.37-2.36-10.4t-7.68-3q-5.33,0-8,3.2t-2.76,10.24Z"/><path class="cls-10" d="M385.45,98.3V92.7h24.24v5.6Z"/><path class="cls-10" d="M443.85,98.86H429.77V117.5h-6.16V62.14h20.24q9,0,13.36,4.4T461.53,80Q461.53,98.86,443.85,98.86Zm-14.08-5.44h14q11.43,0,11.44-13.44,0-6.41-2.72-9.4c-1.82-2-4.72-3-8.72-3h-14Z"/><path class="cls-10" d="M471.76,117.5v-40h5.92v5.44a38.91,38.91,0,0,1,14.64-6.32V82.7a43.19,43.19,0,0,0-7,2,48,48,0,0,0-5.56,2.4l-2,1V117.5Z"/><path class="cls-10" d="M498.64,97.42q0-11,3.92-15.84T515.8,76.7q9.33,0,13.2,4.88t3.88,15.84q0,11-3.68,15.92t-13.44,5q-9.75,0-13.44-5T498.64,97.42Zm6.16-.12q0,8.76,2.12,12.28t8.88,3.52q6.76,0,8.84-3.48t2.08-12.28q0-8.81-2.32-12.12t-8.6-3.32q-6.27,0-8.64,3.32T504.8,97.3Z"/><path class="cls-10" d="M542.64,97.42q0-11,3.92-15.84T559.8,76.7q9.33,0,13.2,4.88t3.88,15.84q0,11-3.68,15.92t-13.44,5q-9.75,0-13.44-5T542.64,97.42Zm6.16-.12q0,8.76,2.12,12.28t8.88,3.52q6.76,0,8.84-3.48t2.08-12.28q0-8.81-2.32-12.12t-8.6-3.32q-6.27,0-8.64,3.32T548.8,97.3Z"/><path class="cls-10" d="M596.08,82.7v34.8h-6V82.7h-5V77.5h5V73.9q0-8.48,2.4-11.56t8.4-3.08l8.08.56-.08,5q-4.47-.16-7.4-.16a4.58,4.58,0,0,0-4.16,1.92c-.82,1.28-1.24,3.76-1.24,7.44V77.5h11.6v5.2Z"/><path class="cls-10" d="M652.32,66.7q-12,0-12,9,0,5,2.76,6.92t11.2,3.76q8.44,1.88,12,4.88t3.52,9.88q0,17-17.68,17a98.72,98.72,0,0,1-14.64-1.36l-2.88-.4.64-5.12a136.83,136.83,0,0,0,16.56,1.44q11.84,0,11.84-11.12c0-3-.87-5.13-2.6-6.44s-5-2.41-9.72-3.32q-9.36-2-13.28-5.16t-3.92-10.6q0-14.88,17.84-14.88a98.4,98.4,0,0,1,14,1.2l2.72.4-.56,5.2A149.22,149.22,0,0,0,652.32,66.7Z"/><path class="cls-10" d="M679.36,97.42q0-11,3.92-15.84t13.24-4.88q9.32,0,13.2,4.88t3.88,15.84q0,11-3.68,15.92t-13.44,5q-9.76,0-13.44-5T679.36,97.42Zm6.16-.12q0,8.76,2.12,12.28t8.88,3.52q6.76,0,8.84-3.48t2.08-12.28q0-8.81-2.32-12.12c-1.55-2.21-4.41-3.32-8.6-3.32s-7.07,1.11-8.64,3.32S685.52,91.46,685.52,97.3Z"/><path class="cls-10" d="M732.8,82.7v34.8h-6V82.7h-5V77.5h5V73.9q0-8.48,2.4-11.56t8.4-3.08l8.08.56-.08,5q-4.47-.16-7.4-.16A4.57,4.57,0,0,0,734,66.54Q732.8,68.46,732.8,74V77.5h11.6v5.2Z"/><path class="cls-10" d="M774.08,82.7H761.36v19.12q0,6.89,1,9c.67,1.44,2.25,2.16,4.76,2.16l7.12-.48.4,5a54.19,54.19,0,0,1-8.16.88q-6.24,0-8.64-3t-2.4-11.6v-21h-5.68V77.5h5.68V65.26h5.92V77.5h12.72Z"/></g></g></g></svg>