<svg xmlns="http://www.w3.org/2000/svg" xmlns:xlink="http://www.w3.org/1999/xlink" viewBox="0 0 750 1025"><defs><style>.cls-1{fill:url(#linear-gradient);}.cls-2{fill:url(#linear-gradient-2);}.cls-3{fill:url(#linear-gradient-3);}.cls-4{fill:url(#linear-gradient-4);}.cls-5{fill:url(#linear-gradient-5);}.cls-6{fill:url(#linear-gradient-6);}.cls-7{fill:url(#linear-gradient-7);}.cls-8{fill:url(#linear-gradient-8);}.cls-9{fill:url(#linear-gradient-9);}.cls-10{fill:url(#linear-gradient-10);}.cls-11{fill:#fff;}.cls-12{fill:url(#linear-gradient-11);}</style><linearGradient id="linear-gradient" x1="1910.7" y1="1311.52" x2="1910.7" y2="1308.62" gradientTransform="matrix(255, 0, 0, -150, -486860.05, 197308)" gradientUnits="userSpaceOnUse"><stop offset="0" stop-color="#8bd8bd" stop-opacity="0"/><stop offset="1" stop-color="#8bd8bd" stop-opacity="0.44"/></linearGradient><linearGradient id="linear-gradient-2" x1="369.55" y1="843.55" x2="369.55" y2="631.53" gradientUnits="userSpaceOnUse"><stop offset="0" stop-color="#f2f2f2"/><stop offset="1" stop-color="#fff"/></linearGradient><linearGradient id="linear-gradient-3" x1="123.04" y1="261.01" x2="431.27" y2="569.23" xlink:href="#linear-gradient-2"/><linearGradient id="linear-gradient-4" x1="297.76" y1="529.77" x2="625.53" y2="300.26" xlink:href="#linear-gradient-2"/><linearGradient id="linear-gradient-5" x1="229.88" y1="508.73" x2="423.59" y2="579.24" gradientUnits="userSpaceOnUse"><stop offset="0" stop-color="#b3ffe3"/><stop offset="1" stop-color="#8bd8bd"/></linearGradient><linearGradient id="linear-gradient-6" x1="331.21" y1="514.22" x2="492.94" y2="573.09" xlink:href="#linear-gradient-5"/><linearGradient id="linear-gradient-7" x1="370.65" y1="411" x2="370.65" y2="310.98" gradientUnits="userSpaceOnUse"><stop offset="0" stop-color="#8bd8bd"/><stop offset="1" stop-color="#b3ffe3"/></linearGradient><linearGradient id="linear-gradient-8" x1="369.73" y1="199.01" x2="369.73" gradientUnits="userSpaceOnUse"><stop offset="0" stop-color="#8bd8bd"/><stop offset="1" stop-color="#9dd8bd" stop-opacity="0.6"/></linearGradient><linearGradient id="linear-gradient-9" x1="236.72" y1="936.22" x2="236.72" y2="153.15" xlink:href="#linear-gradient-8"/><linearGradient id="linear-gradient-10" x1="501.92" y1="936.22" x2="501.92" y2="153.15" gradientUnits="userSpaceOnUse"><stop offset="0" stop-color="#8bd8bd"/><stop offset="1" stop-color="#b3ffe3" stop-opacity="0.6"/></linearGradient><linearGradient id="linear-gradient-11" x1="370.53" y1="367.42" x2="370.53" y2="1015.88" gradientTransform="matrix(1, 0, 0, 1, 0, 0)" xlink:href="#linear-gradient"/></defs><title>Asset 13</title><g id="Layer_2" data-name="Layer 2"><g id="Layer_1-2" data-name="Layer 1"><ellipse id="Ellipse_8" data-name="Ellipse 8" class="cls-1" cx="369.14" cy="797.86" rx="369.14" ry="217.14"/><polygon class="cls-2" points="554.33 736.97 554.33 736.69 369.04 631.52 184.77 737.21 184.77 737.21 369.74 843.55 554.33 736.97"/><polygon class="cls-3" points="369 92.59 369.25 631.25 184.87 737.22 184.93 199.12 369 92.59"/><polygon class="cls-4" points="369 92.59 554.6 198.95 554.6 737.22 369.25 631.86 369 92.59"/><polygon class="cls-5" points="285.4 679.88 369.2 728.67 369.15 410 284.27 359.3 285.4 679.88"/><path class="cls-6" d="M369.15,410c3.64-2.12,87.62-50.71,87.62-50.71l-2.7,320.59-84.87,48.8Z"/><polygon class="cls-7" points="369.2 310.98 457.15 360 369.15 411 284.15 359 369.2 310.98"/><polygon class="cls-8" points="104.88 153.16 184.87 199.01 369.25 92.67 554.6 199.01 634.59 153.16 369.25 0 104.88 153.16"/><polygon class="cls-9" points="185 199.07 104.83 153.15 104.19 775.14 369.25 936.22 369.25 843.55 184.87 737.22 185 199.07"/><polygon class="cls-10" points="369.25 843.55 554.6 737.22 554.6 198.95 634.54 153.15 634.59 783.07 369.25 936.22 369.25 843.55"/><g id="Ellipse_10" data-name="Ellipse 10"><circle class="cls-11" cx="28.84" cy="377.41" r="14.48"/></g><g id="Ellipse_11" data-name="Ellipse 11"><circle class="cls-11" cx="688.95" cy="562.71" r="14.48"/></g><circle id="Ellipse_10-2" data-name="Ellipse 10-2" class="cls-11" cx="60.69" cy="745.1" r="14.48"/><path class="cls-11" d="M741,453.8c-.8-58.64-41.33-111.81-106.49-150.64l0,3.28c64.08,38.59,103.6,91.21,103.6,149.14,0,118.14-164.3,214.25-366.25,214.25S5.68,573.72,5.68,455.58c0-56.48,37.57-107.91,98.85-146.23l0-3.3C41.51,345,2.79,397.69,2.79,455.58c0,119.73,165.59,217.14,369.13,217.14,202.49,0,367.4-96.4,369.1-215.28,0-.62,0-1.24,0-1.86S741,454.4,741,453.8Z"/><path class="cls-11" d="M634.31,476.74V480c64.23,38.61,103.86,91.29,103.86,149.29,0,118.14-164.3,214.25-366.25,214.25S5.68,747.43,5.68,629.29c0-56.44,37.53-107.85,98.73-146.15v-3.31c-62.94,39-101.62,91.6-101.62,149.46C2.79,749,168.38,846.43,371.92,846.43S741.06,749,741.06,629.29C741.06,569.88,700.27,516,634.31,476.74Z"/></g></g></svg>